<svg width="43" height="20" viewBox="0 0 43 20" fill="none" xmlns="http://www.w3.org/2000/svg">
<g filter="url(#filter0_i_109_128)">
<rect x="0.810059" y="0.51001" width="42.19" height="18.98" rx="9.375" fill="url(#paint0_linear_109_128)"/>
</g>
<path d="M24.7829 5.96914C24.8857 5.82198 25.1136 5.86214 25.1598 6.03554L25.3231 6.64847C25.3419 6.71896 25.3958 6.77475 25.4656 6.79596L26.0726 6.98043C26.2444 7.03261 26.2766 7.26173 26.1259 7.35924L25.5933 7.7039C25.532 7.74354 25.4956 7.81202 25.497 7.88496L25.5091 8.51914C25.5125 8.69855 25.3045 8.79999 25.1652 8.68686L24.6727 8.28694C24.6161 8.24095 24.5397 8.22748 24.4707 8.25135L23.8711 8.45883C23.7015 8.51753 23.5407 8.3511 23.6053 8.18367L23.8336 7.59185C23.8598 7.52378 23.849 7.44698 23.805 7.38879L23.4223 6.88284C23.3141 6.73971 23.4227 6.53541 23.602 6.54507L24.2355 6.57921C24.3084 6.58314 24.3781 6.54914 24.4199 6.48931L24.7829 5.96914Z" fill="url(#paint1_linear_109_128)"/>
<path d="M19.9958 3.12277C20.0208 3.0869 20.0764 3.09669 20.0876 3.13895L20.1274 3.28834C20.132 3.30552 20.1451 3.31912 20.1621 3.32429L20.3101 3.36925C20.352 3.38197 20.3598 3.43781 20.3231 3.46158L20.1933 3.54558C20.1783 3.55524 20.1695 3.57193 20.1698 3.58971L20.1728 3.74428C20.1736 3.788 20.1229 3.81273 20.0889 3.78515L19.9689 3.68768C19.9551 3.67647 19.9365 3.67319 19.9197 3.67901L19.7735 3.72958C19.7322 3.74388 19.693 3.70332 19.7087 3.66251L19.7644 3.51827C19.7708 3.50168 19.7681 3.48296 19.7574 3.46878L19.6642 3.34546C19.6378 3.31058 19.6642 3.26079 19.7079 3.26314L19.8623 3.27146C19.8801 3.27242 19.8971 3.26413 19.9073 3.24955L19.9958 3.12277Z" fill="url(#paint2_linear_109_128)"/>
<path d="M30.8595 7.50097C30.8854 7.39533 31.023 7.36824 31.0871 7.45617L31.3134 7.76699C31.3394 7.80274 31.3821 7.8225 31.4262 7.81924L31.8097 7.79088C31.9182 7.78286 31.9865 7.90535 31.9226 7.99339L31.6969 8.30461C31.6709 8.34041 31.6653 8.38708 31.682 8.42801L31.8275 8.78388C31.8686 8.88455 31.7732 8.98735 31.6697 8.95383L31.3039 8.83535C31.2618 8.82173 31.2157 8.83081 31.1819 8.85937L30.8883 9.10766C30.8053 9.1779 30.678 9.11895 30.6779 9.01019L30.6776 8.62575C30.6775 8.58153 30.6546 8.54047 30.617 8.51719L30.2901 8.31478C30.1976 8.25751 30.2143 8.11828 30.3178 8.08458L30.6834 7.96546C30.7255 7.95176 30.7574 7.9173 30.768 7.87436L30.8595 7.50097Z" fill="url(#paint3_linear_109_128)"/>
<path d="M35.1969 5.02371C35.2114 4.96455 35.2885 4.94937 35.3244 4.99862L35.4511 5.1727C35.4657 5.19272 35.4896 5.20379 35.5143 5.20197L35.7291 5.18609C35.7898 5.18159 35.8281 5.25019 35.7923 5.2995L35.6659 5.47381C35.6513 5.49386 35.6482 5.52 35.6576 5.54292L35.739 5.74223C35.7621 5.79862 35.7087 5.85619 35.6507 5.83742L35.4458 5.77106C35.4222 5.76343 35.3964 5.76852 35.3775 5.78451L35.213 5.92358C35.1665 5.96292 35.0952 5.9299 35.0952 5.86898L35.095 5.65367C35.095 5.6289 35.0822 5.60591 35.0611 5.59287L34.878 5.4795C34.8262 5.44743 34.8356 5.36945 34.8935 5.35058L35.0983 5.28386C35.1218 5.27619 35.1397 5.25689 35.1456 5.23284L35.1969 5.02371Z" fill="url(#paint4_linear_109_128)"/>
<path d="M28.7435 2.58984C28.8135 2.55983 28.8867 2.62545 28.8644 2.69834L28.7857 2.95597C28.7766 2.9856 28.7835 3.0178 28.8039 3.04112L28.9814 3.24384C29.0316 3.30119 28.9918 3.39103 28.9156 3.39237L28.6461 3.39713C28.6152 3.39767 28.5867 3.41419 28.5708 3.4408L28.4328 3.67217C28.3937 3.73763 28.2959 3.72753 28.2711 3.65547L28.1833 3.40078C28.1732 3.37149 28.1487 3.34949 28.1185 3.34262L27.8557 3.2829C27.7814 3.266 27.7608 3.16992 27.8217 3.12404L28.0368 2.96188C28.0616 2.94323 28.0749 2.91311 28.0721 2.88226L28.0478 2.61398C28.0409 2.53808 28.1259 2.4888 28.1884 2.5325L28.4091 2.68697C28.4345 2.70473 28.4673 2.70812 28.4958 2.69592L28.7435 2.58984Z" fill="url(#paint5_linear_109_128)"/>
<defs>
<filter id="filter0_i_109_128" x="0.810059" y="0.51001" width="42.1899" height="20.105" filterUnits="userSpaceOnUse" color-interpolation-filters="sRGB">
<feFlood flood-opacity="0" result="BackgroundImageFix"/>
<feBlend mode="normal" in="SourceGraphic" in2="BackgroundImageFix" result="shape"/>
<feColorMatrix in="SourceAlpha" type="matrix" values="0 0 0 0 0 0 0 0 0 0 0 0 0 0 0 0 0 0 127 0" result="hardAlpha"/>
<feMorphology radius="0.5625" operator="erode" in="SourceAlpha" result="effect1_innerShadow_109_128"/>
<feOffset dy="1.125"/>
<feGaussianBlur stdDeviation="0.75"/>
<feComposite in2="hardAlpha" operator="arithmetic" k2="-1" k3="1"/>
<feColorMatrix type="matrix" values="0 0 0 0 0 0 0 0 0 0 0 0 0 0 0 0 0 0 0.25 0"/>
<feBlend mode="normal" in2="shape" result="effect1_innerShadow_109_128"/>
</filter>
<linearGradient id="paint0_linear_109_128" x1="22.4324" y1="1.24812" x2="21.9054" y2="19.49" gradientUnits="userSpaceOnUse">
<stop stop-color="#2B4485"/>
<stop offset="1" stop-color="#AFCAFF"/>
<stop offset="1" stop-color="#AFCAFF"/>
</linearGradient>
<linearGradient id="paint1_linear_109_128" x1="25.0429" y1="5.59673" x2="24.4207" y2="9.12748" gradientUnits="userSpaceOnUse">
<stop stop-color="#ADDDFF"/>
<stop offset="1" stop-color="#EDF6FF" stop-opacity="0"/>
</linearGradient>
<linearGradient id="paint2_linear_109_128" x1="20.0591" y1="3.03201" x2="19.9075" y2="3.89254" gradientUnits="userSpaceOnUse">
<stop stop-color="#ADDDFF"/>
<stop offset="1" stop-color="#EDF6FF" stop-opacity="0"/>
</linearGradient>
<linearGradient id="paint3_linear_109_128" x1="30.925" y1="7.23365" x2="31.3448" y2="9.36567" gradientUnits="userSpaceOnUse">
<stop stop-color="#ADDDFF"/>
<stop offset="1" stop-color="#EDF6FF" stop-opacity="0"/>
</linearGradient>
<linearGradient id="paint4_linear_109_128" x1="35.2336" y1="4.87399" x2="35.4687" y2="6.06808" gradientUnits="userSpaceOnUse">
<stop stop-color="#ADDDFF"/>
<stop offset="1" stop-color="#EDF6FF" stop-opacity="0"/>
</linearGradient>
<linearGradient id="paint5_linear_109_128" x1="28.9208" y1="2.51389" x2="27.904" y2="3.64749" gradientUnits="userSpaceOnUse">
<stop stop-color="#ADDDFF"/>
<stop offset="1" stop-color="#EDF6FF" stop-opacity="0"/>
</linearGradient>
</defs>
</svg>
