<svg xmlns="http://www.w3.org/2000/svg" width="15" height="14" viewBox="0 0 15 14" fill="none">
    <path
        d="M3.47754 1.75038C3.47734 2.14821 3.31911 2.52966 3.03767 2.81082C2.75622 3.09199 2.37461 3.24983 1.97679 3.24963C1.57896 3.24944 1.19751 3.09121 0.916349 2.80976C0.635185 2.52832 0.47734 2.14671 0.477539 1.74888C0.477738 1.35106 0.635964 0.969607 0.917409 0.688443C1.19885 0.407279 1.58046 0.249435 1.97829 0.249634C2.37611 0.249833 2.75757 0.408059 3.03873 0.689504C3.31989 0.970949 3.47774 1.35256 3.47754 1.75038ZM3.52254 4.36038H0.522539V13.7504H3.52254V4.36038ZM8.26254 4.36038H5.27754V13.7504H8.23254V8.82288C8.23254 6.07788 11.81 5.82288 11.81 8.82288V13.7504H14.7725V7.80288C14.7725 3.17538 9.47754 3.34788 8.23254 5.62038L8.26254 4.36038Z"
        fill="#2B0FFC" />
</svg>