<svg xmlns="http://www.w3.org/2000/svg" width="9" height="14" viewBox="0 0 9 14" fill="none">
    <path
        d="M6.0626 0.15625C5.14263 0.15625 4.26034 0.521706 3.60982 1.17222C2.9593 1.82274 2.59385 2.70503 2.59385 3.625V5.55625H0.737598C0.644598 5.55625 0.568848 5.63125 0.568848 5.725V8.275C0.568848 8.368 0.643848 8.44375 0.737598 8.44375H2.59385V13.675C2.59385 13.768 2.66885 13.8438 2.7626 13.8438H5.3126C5.4056 13.8438 5.48135 13.7687 5.48135 13.675V8.44375H7.3541C7.43135 8.44375 7.49885 8.39125 7.5176 8.31625L8.1551 5.76625C8.16137 5.74137 8.16189 5.71538 8.1566 5.69027C8.15132 5.66516 8.14038 5.64158 8.12462 5.62133C8.10885 5.60108 8.08868 5.5847 8.06563 5.57342C8.04258 5.56214 8.01726 5.55627 7.9916 5.55625H5.48135V3.625C5.48135 3.54867 5.49638 3.47309 5.52559 3.40257C5.5548 3.33204 5.59762 3.26797 5.65159 3.21399C5.70557 3.16002 5.76964 3.11721 5.84016 3.088C5.91068 3.05878 5.98627 3.04375 6.0626 3.04375H8.0126C8.1056 3.04375 8.18135 2.96875 8.18135 2.875V0.325C8.18135 0.232 8.10635 0.15625 8.0126 0.15625H6.0626Z"
        fill="#2B0FFC" />
</svg>