<svg xmlns="http://www.w3.org/2000/svg" width="17" height="16" viewBox="0 0 17 16" fill="none">
    <path
        d="M8.1228 5.36397C6.67129 5.36397 5.48675 6.54851 5.48675 8.00003C5.48675 9.45154 6.67129 10.6361 8.1228 10.6361C9.57432 10.6361 10.7589 9.45154 10.7589 8.00003C10.7589 6.54851 9.57432 5.36397 8.1228 5.36397ZM16.029 8.00003C16.029 6.90842 16.0389 5.82671 15.9776 4.73709C15.9163 3.47146 15.6276 2.34822 14.7021 1.42273C13.7746 0.495266 12.6533 0.208523 11.3877 0.147219C10.2961 0.0859153 9.21441 0.0958031 8.12478 0.0958031C7.03318 0.0958031 5.95147 0.0859153 4.86184 0.147219C3.59622 0.208523 2.47298 0.497243 1.54749 1.42273C0.620022 2.3502 0.333279 3.47146 0.271975 4.73709C0.210671 5.82869 0.220559 6.9104 0.220559 8.00003C0.220559 9.08965 0.210671 10.1733 0.271975 11.263C0.333279 12.5286 0.621999 13.6518 1.54749 14.5773C2.47495 15.5048 3.59622 15.7915 4.86184 15.8528C5.95344 15.9141 7.03516 15.9043 8.12478 15.9043C9.21638 15.9043 10.2981 15.9141 11.3877 15.8528C12.6533 15.7915 13.7766 15.5028 14.7021 14.5773C15.6295 13.6499 15.9163 12.5286 15.9776 11.263C16.0409 10.1733 16.029 9.09163 16.029 8.00003ZM8.1228 12.056C5.8783 12.056 4.06687 10.2445 4.06687 8.00003C4.06687 5.75552 5.8783 3.94409 8.1228 3.94409C10.3673 3.94409 12.1787 5.75552 12.1787 8.00003C12.1787 10.2445 10.3673 12.056 8.1228 12.056ZM12.3449 4.72522C11.8208 4.72522 11.3976 4.30203 11.3976 3.77798C11.3976 3.25393 11.8208 2.83074 12.3449 2.83074C12.8689 2.83074 13.2921 3.25393 13.2921 3.77798C13.2922 3.90242 13.2679 4.02566 13.2203 4.14066C13.1728 4.25565 13.103 4.36014 13.015 4.44813C12.927 4.53612 12.8225 4.60589 12.7075 4.65344C12.5925 4.70098 12.4693 4.72538 12.3449 4.72522Z"
        fill="#2B0FFC" />
</svg>