<svg xmlns="http://www.w3.org/2000/svg" width="15" height="18" viewBox="0 0 15 18" fill="none">
    <path fill-rule="evenodd" clip-rule="evenodd"
        d="M2.28762 2.71726C3.52512 1.39726 5.31087 0.632263 7.48512 0.632263C11.0791 0.632263 13.4979 2.72026 14.2599 5.61976C14.3357 5.90838 14.2937 6.21529 14.1432 6.47297C13.9927 6.73064 13.746 6.91798 13.4574 6.99376C13.1688 7.06955 12.8618 7.02758 12.6042 6.87708C12.3465 6.72658 12.1592 6.47988 12.0834 6.19126C11.5831 4.28476 10.0606 2.88226 7.48588 2.88226C5.86287 2.88226 4.69588 3.43876 3.92938 4.25626C3.15238 5.08576 2.70312 6.27226 2.70312 7.66351V9.35101C2.70312 10.7423 3.15162 11.9288 3.92862 12.7583C4.69512 13.5758 5.86212 14.1323 7.48438 14.1323C8.66638 14.1323 9.58062 13.8585 10.2699 13.4348C10.9599 13.0088 11.3349 12.471 11.4399 11.8838C11.5696 11.1548 11.4069 10.6995 11.1669 10.383C11.1395 10.3467 11.1105 10.3117 11.0799 10.278C10.9746 10.6441 10.8172 10.9932 10.6126 11.3145C9.47713 13.0395 7.33587 13.1595 5.96037 12.6105C5.14212 12.2843 4.48137 11.4233 4.27512 10.5195C4.14684 9.98286 4.19093 9.41943 4.40112 8.90926C4.63513 8.34676 5.06412 7.88176 5.64762 7.53826C6.24762 7.18426 7.09287 7.03951 7.88188 7.01776C8.19569 7.00986 8.5097 7.01988 8.82237 7.04776C8.75487 6.89776 8.68212 6.79051 8.61687 6.72901C8.32887 6.46126 7.82188 6.25501 7.30737 6.25801C6.82212 6.26176 6.46287 6.44326 6.24988 6.78301C6.17157 6.90829 6.06936 7.01693 5.94908 7.10271C5.8288 7.18849 5.6928 7.24974 5.54884 7.28296C5.40489 7.31618 5.2558 7.32072 5.11009 7.29632C4.96438 7.27192 4.82491 7.21906 4.69963 7.14076C4.57434 7.06246 4.46571 6.96025 4.37993 6.83997C4.29415 6.71969 4.2329 6.58368 4.19968 6.43973C4.16646 6.29578 4.16192 6.14669 4.18632 6.00098C4.21072 5.85527 4.26357 5.71579 4.34187 5.59051C5.05287 4.45426 6.22213 4.01551 7.29163 4.00801C8.33262 4.00051 9.40737 4.39201 10.1491 5.08201C10.8646 5.74801 11.1789 6.77251 11.2839 7.69576C11.9109 7.99801 12.5064 8.42626 12.9594 9.02326C13.6149 9.88576 13.8841 10.9913 13.6546 12.2783C13.4146 13.623 12.5671 14.6618 11.4496 15.3503C10.3569 16.0238 9.02038 16.3823 7.48438 16.3823C5.31012 16.3823 3.52437 15.6173 2.28688 14.2973C1.05987 12.9878 0.453125 11.2223 0.453125 9.35101V7.66351C0.453125 5.79301 1.06062 4.02601 2.28688 2.71801L2.28762 2.71726ZM8.99788 9.33451C8.64929 9.28109 8.29668 9.2585 7.94413 9.26701C7.29912 9.28501 6.90612 9.40801 6.79137 9.47626C6.56262 9.61126 6.49887 9.72601 6.47862 9.77476C6.45008 9.8536 6.44719 9.93944 6.47038 10.02C6.49738 10.14 6.56112 10.2698 6.64887 10.38C6.68916 10.4344 6.73836 10.4816 6.79437 10.5195C6.79838 10.5225 6.79838 10.523 6.79437 10.521C7.53312 10.8158 8.37312 10.626 8.73387 10.077C8.83662 9.92176 8.93262 9.66226 8.99788 9.33451Z"
        fill="#2B0FFC" />
</svg>