<svg xmlns="http://www.w3.org/2000/svg" width="13" height="18" viewBox="0 0 13 18" fill="none">
    <path fill-rule="evenodd" clip-rule="evenodd"
        d="M8.375 0.819763C8.77283 0.819763 9.15436 0.977798 9.43566 1.2591C9.71697 1.54041 9.875 1.92194 9.875 2.31976C9.87539 2.8381 10.0545 3.34045 10.3821 3.74211C10.7097 4.14378 11.1658 4.4202 11.6735 4.52476C12.0634 4.60393 12.4058 4.83473 12.6255 5.16639C12.8452 5.49805 12.9242 5.9034 12.845 6.29326C12.7658 6.68313 12.535 7.02558 12.2034 7.24528C11.8717 7.46498 11.4664 7.54393 11.0765 7.46476C10.6613 7.38 10.2578 7.24527 9.875 7.06351V11.3198C9.87496 12.1614 9.63888 12.9862 9.19356 13.7005C8.74824 14.4147 8.11154 14.9897 7.35579 15.3602C6.60003 15.7307 5.75553 15.8818 4.9182 15.7963C4.08087 15.7109 3.28429 15.3923 2.61894 14.8768C1.95359 14.3613 1.44615 13.6696 1.15426 12.8801C0.862377 12.0907 0.797742 11.2352 0.967702 10.4109C1.13766 9.58654 1.53541 8.82639 2.11575 8.21678C2.69609 7.60717 3.43577 7.17254 4.25075 6.96226C4.63356 6.86994 5.03732 6.93186 5.37488 7.13465C5.71244 7.33744 5.95671 7.66483 6.05497 8.04616C6.15323 8.42749 6.0976 8.83217 5.90008 9.17283C5.70256 9.5135 5.37901 9.76284 4.99925 9.86701C4.64763 9.96031 4.34184 10.1781 4.13871 10.4799C3.93558 10.7817 3.84893 11.147 3.89485 11.5078C3.94077 11.8687 4.11615 12.2006 4.38839 12.4419C4.66063 12.6832 5.01122 12.8175 5.375 12.8198C5.77283 12.8198 6.15436 12.6617 6.43566 12.3804C6.71697 12.0991 6.875 11.7176 6.875 11.3198V2.31976C6.875 1.92194 7.03304 1.54041 7.31434 1.2591C7.59565 0.977798 7.97718 0.819763 8.375 0.819763Z"
        fill="#2B0FFC" />
</svg>